# xmcd CD database file
#
# Track frame offsets:
#	150
#	11955
#	20735
#	30900
#	41667
#	53446
#	64997
#	77886
#	89223
#	103647
#
# Disc length: 1557 seconds
#
# Revision: 0
# Processed by: cddbd v1.5.1PL0 Copyright (c) Steve Scherf et al.
# Submitted via: CDex 1.50Beta7
#
DISCID=8006130a
DTITLE=Various Artist - Mambo
DYEAR=1900
DGENRE=Merengue
TTITLE0=perfidia-Dominguez_A
TTITLE1=ElRuletero-PerezPrado
TTITLE2=Patricia-PerezPrado
TTITLE3=EiCayuco-TitoPuente
TTITLE4=MamboNo5-PerezPrado
TTITLE5=Lupita-PerezPrado
TTITLE6=RenCanCan-TitoPuente
TTITLE7=FranciscoGuayabal-Leiva_W
TTITLE8=MamboJumbo-PerezPrado
TTITLE9=ComoFue-DuarteBrito
EXTD=
EXTT0=
EXTT1=
EXTT2=
EXTT3=
EXTT4=
EXTT5=
EXTT6=
EXTT7=
EXTT8=
EXTT9=
PLAYORDER=
